<?xml version="1.0" encoding="UTF-8"?>
<svg id="Camada_1" data-name="Camada 1" xmlns="http://www.w3.org/2000/svg" viewBox="0 0 1080.17 841.29">
  <defs>
    <style>
      .cls-1 {
        fill: #efefef;
      }
    </style>
  </defs>
  <g>
    <path class="cls-1" d="M253.64,755.71v29.19l-.1.21-.25.36s-.09.08-.11.1c-1.67,1.39-3.4,2.61-5.28,3.67-3.7,2.09-7.68,3.42-11.91,4.01-2.79.39-5.51.5-8.28.32-2.87-.19-5.64-.74-8.36-1.68-3.22-1.1-6.16-2.72-8.85-4.83-.8-.63-1.47-1.22-2.22-1.89-.14-.13-.15-.41-.02-.57,1.71-2.21,2.97-4.62,3.25-7.46.44-4.46.06-8.88-2.87-12.47-1.27-1.55-2.93-2.47-4.83-3.22v-.15c2.37-1.29,4.17-3.1,5.05-5.7,1.81-5.41,1.66-10.46-1.24-15.49-.21-.37-.21-.72.1-1.02,4.77-4.65,10.3-7.63,16.9-8.6,4.86-.71,9.98-.6,14.71.59l.19.05c3.56.89,6.87,2.34,9.94,4.28,1.34.85,2.69,1.88,3.9,2.89.26.21.25.64.02.89l-4.98,5.45-3.06,3.35c-.17.19-.52.12-.69,0-.81-.59-1.55-1.12-2.4-1.63-4.24-2.54-8.98-3.51-13.92-3.13-4.47.35-8.41,1.95-11.57,5.16-2.33,2.37-3.9,5.26-4.6,8.52-.59,2.75-.67,6.02-.18,8.79.51,2.91,1.61,5.58,3.33,7.95,1.36,1.87,3.05,3.36,5.09,4.49,1.27.7,2.87,1.33,4.25,1.67,4.27,1.04,8.69,1.02,12.86-.32.94-.3,1.77-.74,2.65-1.25.21-.12.42-.48.42-.69v-1.05s0-7.19,0-7.19v-1.33c0-.16-.23-.43-.4-.43h-1.87s-5.54.03-5.54.03c-.33,0-.62-.25-.62-.56v-1.53s0-8.07,0-8.07v-1.53c0-.3.28-.58.62-.58h5.27s9.41,0,9.41,0h5.55c.17-.01.46.12.54.21l.11.21ZM115.55,729.38l-.18.1c-.16.08-.44.33-.48.53l-.25,1.14-3.87,14.6-2.9,10.95c-.07.28-.02.59.04.82l1.19,4.63,2.32,8.93,4.3-16.13,4.7-17.77,1.92-7.23c.02-.09,0-.35-.07-.39s-.19-.07-.38-.07h-5.43c-.08,0-.22-.1-.17-.09h-.74ZM149.17,807.26c2.44-.31,3.44-3.02,2.66-5.14-.46-1.28-1.57-2.14-2.95-2.28-1.69-.17-3.19.52-3.87,2.07-.44,1.02-.47,2.15-.09,3.2.4,1.1,1.31,1.91,2.49,2.13.14.03.3.06.37.1h1.2l.19-.09ZM147.63,805.99c-1.46-.39-1.89-2.16-1.42-3.46.35-.96,1.21-1.49,2.23-1.47.92.01,1.71.48,2.07,1.33s.33,1.81-.11,2.62c-.54,1-1.74,1.26-2.77.99ZM186.95,807.12c2.12-.8,2.73-3.32,1.93-5.19s-2.82-2.49-4.62-1.94c-2.16.66-2.96,3.18-2.18,5.19.41,1.07,1.32,1.86,2.48,2.06.14.03.3.06.37.1h1.11c-.03-.19.27.01.92-.23ZM184.76,806c-1.48-.39-1.92-2.16-1.43-3.49.34-.92,1.16-1.45,2.14-1.45s1.76.44,2.13,1.3c.34.79.36,1.69-.02,2.51-.53,1.13-1.75,1.42-2.82,1.14ZM210.22,807.11c.93-.35,1.58-1.03,1.94-1.9.75-1.83.16-4.22-1.74-5.06-1.69-.75-3.94-.32-4.89,1.5-.59,1.12-.64,2.42-.17,3.59.43,1.05,1.32,1.81,2.46,2.01.14.02.3.06.37.1h1.11c-.02-.19.25.02.92-.23ZM208.38,806.07c-.75-.09-1.37-.52-1.69-1.19-.37-.77-.39-1.64-.08-2.42.36-.91,1.18-1.4,2.13-1.4,1.01,0,1.86.51,2.2,1.49.26.74.24,1.53-.07,2.24-.45,1.03-1.4,1.4-2.5,1.28ZM106.03,807.11c2.08-.81,2.67-3.26,1.94-5.1-.48-1.2-1.55-2.02-2.85-2.16-1.68-.18-3.17.46-3.88,1.97-.5,1.07-.54,2.29-.09,3.41s1.35,1.83,2.49,2.02c.15.02.3.06.37.1h1.11c-.03-.19.27.01.92-.24ZM103.75,806.02c-.53-.24-.98-.55-1.24-1.06-.72-1.43-.24-3.43,1.37-3.82,1.06-.26,2.19.07,2.71,1.1.39.78.42,1.68.1,2.49-.5,1.26-1.71,1.52-2.94,1.29ZM121.18,807.25c.76-.05,1.42-.42,1.84-1.04.55-.81.47-2.45-.84-3.02-1.17-.52-1.88-.3-2.91-.7-.4-.15-.58-.59-.37-.99.45-.86,2.38-.8,3.14.18l1.05-.53c-.52-1.27-2.17-1.56-3.38-1.41-1.23.15-2.33.87-2.25,2.24.1,1.52,1.51,1.86,2.73,2.01.59.07,1.72.21,1.77.99.02.36-.16.72-.48.89-1.02.53-2.65.32-3.23-.86l-1.09.57c.29.93,1.16,1.55,2.06,1.67.07,0,.19.06.21.09h1.57l.18-.09ZM128.67,807.25c1.58-.16,2.46-1.52,2.46-3.04v-4.23s-1.35,0-1.35,0v4.33c0,.22-.1.56-.17.75-.23.64-.81,1.02-1.49,1.04-.49.01-1-.09-1.38-.43-.32-.29-.57-.79-.57-1.28v-4.23s-.1-.19-.13-.19h-1.25s0,4.25,0,4.25c0,1.49.9,2.79,2.41,3.04.14.02.3.06.37.1h.92l.18-.09ZM178.76,807.28c.79-.02,1.6-.42,2.18-1.01l-.92-.93c-1.15,1.08-3.22.96-3.97-.39-.42-.77-.46-1.69-.09-2.51.36-.79,1.09-1.23,1.91-1.31.75-.07,1.44.1,2.07.66l.89-.89c-.94-.91-2.09-1.21-3.32-1.05-1.36.18-2.45,1.03-2.91,2.3-.77,2.16.25,4.75,2.64,5.09.14.02.3.05.37.09h1.11l.03-.07ZM98.09,807.26c.73-.11,1.3-.43,1.9-.96l-.92-.95c-.68.59-1.47.82-2.37.68-.83-.13-1.48-.65-1.77-1.43-.26-.72-.23-1.49.09-2.18.37-.77,1.1-1.22,1.93-1.29.75-.06,1.43.13,2.05.66l.88-.88c-.91-.91-2.06-1.22-3.29-1.06-1.35.17-2.44,1-2.92,2.27-.78,2.09.16,4.73,2.57,5.12.14.02.3.06.37.1h1.2s.16-.07.27-.09ZM88.25,735.88l-.75-2.7-.78-3.25c-.04-.18-.27-.44-.46-.44h-6.17c-.24,0-.55.09-.74.17,0,.17-.02.44.01.56l2.86,10.7,12.22,45.73,1.61,6.03c.03.29.21.44.48.44l7-.05-15.28-57.18ZM140.95,793.09c.08,0,.29-.04.29-.11l.03-.35-9.1-33.29-3.11-11.39-3.62,13.19c0,.29.01.48.07.79l3.99,14.63,4.37,16.08c.08.28.31.46.59.46h6.48ZM147.03,769.99l8.55-33.57,1.65-6.47c.02-.08-.01-.32-.07-.37s-.22-.1-.33-.1h-6.37c-.31,0-.56.19-.64.5l-3.04,12.01-3.67,14.45c-.05.22-.04.47.01.68l3.54,13.86c.23-.35.28-.63.37-.99ZM197.01,776.37c.32-1.17.35-2.38.08-3.55-.45-1.92-1.9-3.25-3.71-3.89-2.77-.97-5.89-1.42-8.82-1.57l-2.31-.12c-.34-.02-.62-.29-.62-.64v-2.69s.02-8.03.02-8.03c0-.23-.18-.46-.4-.47l-3.8-.13c-.39-.01-.65.19-.65.61v9.77s0,1.06,0,1.06c0,.16.26.4.4.41l2.29.12c2.95.16,9.97.85,11.79,3.41,1.16,1.63,1.51,3.65.96,5.56s-1.9,3.48-3.78,4.04l-2.76.82c1.16.13,2.19.1,3.3.02,1.94-.13,3.89-.59,5.57-1.56,1.23-.71,2.08-1.84,2.45-3.19ZM179.74,793.03c-5.98-.83-12.06-4.34-16.41-8.5-.25-.24-.24-.58,0-.82l3.42-3.41,2.63-2.63-1.17-1.02c-.31-.27-.58-.57-.85-.88-.2-.23-.56-.29-.81-.04l-.77.77-6.52,6.52-.68.68c-.23.23-.24.64,0,.85l1.57,1.4c4.43,3.93,10.15,6.32,15.99,7.23,2.03.32,4.04.44,6.11.47.31,0,.62-.03.95-.07.19-.05.2-.07,0-.07l-3.45-.48ZM185.94,755.36c2.07.2,5.17-.24,7.18-.76,1.01-.26,2.29-.77,2.93-1.62,1.83-2.45,1.63-5.83-.49-8.06-2.09-2.2-7.06-2.56-9.89-2.44-.19,0-.41.04-.57.07l.47.1c1.57.32,2.69.54,4.07,1.35,1.21.71,2.09,1.78,2.5,3.11.49,1.57.49,3.26-.19,4.77-.54,1.2-1.52,2.13-2.78,2.56-1.08.37-2.17.57-3.34.77-.08.01-.21.06-.37.12l.47.05ZM159.94,807.13l-2.2-2.51c1.07-.21,1.7-.98,1.8-1.99.12-1.29-.68-2.39-1.97-2.62-.08-.01-.28-.06-.37-.06h-3.69s0,7.02,0,7.02c0,.1.15.21.19.21h.63s.55-.03.55-.03v-2.38s1.27-.03,1.27-.03l2.1,2.4.7.03c.32.01.58,0,.98-.04ZM157.11,803.52h-2.22s0-2.28,0-2.28h2.13c.64,0,1.16.44,1.16,1.16-.02.61-.47,1.11-1.07,1.11ZM220.21,806.98l-2.07-2.33c1.14-.34,1.75-1,1.79-2.2.04-1.05-.54-1.95-1.51-2.3-.21-.08-.56-.18-.81-.18l-3.52-.02c-.06,0-.2.13-.2.24v6.99s1.36,0,1.36,0v-2.24s.04-.13.04-.13c0-.03.15-.05.19-.05l1.09.02,2.07,2.38h.81s.82.02.82.02l-.07-.2ZM217.43,803.53h-2.16s0-2.29,0-2.29h2.25c.55.01,1.01.46,1.05,1.07.04.72-.47,1.22-1.13,1.22ZM196.99,807.04l-2.11-2.38c.35-.15.7-.27.99-.49,1.02-.75,1.14-2.74-.08-3.67-.34-.26-.88-.52-1.36-.53l-3.61-.04c-.07,0-.2.13-.2.25v6.98s1.37.02,1.37.02v-2.24s.04-.13.04-.13c0-.03.15-.05.2-.05l1.08.02,2.07,2.38h.53s1.01.03,1.01.03l.07-.14ZM194.25,803.52l-2.24.02v-2.29s2.24,0,2.24,0c.57,0,1.02.48,1.05,1.08s-.42,1.18-1.05,1.19ZM115.57,799.93l-1.15.03v4.36c-.11-.06-.19-.12-.25-.21l-3.29-4.17-1.1.04v7.18s1.36,0,1.36,0v-4.65c.06-.06.07-.08.12-.05l3.65,4.7h.88s0-6.98,0-6.98c0-.12-.14-.25-.22-.25ZM252.27,807.19l.63-.02c.19,0,.35-.02.62-.04l-3.21-7.17h-1.51s-3.21,7.18-3.21,7.18l.95.04c.16,0,.37,0,.53-.02l.6-1.34h3.76s.57,1.23.57,1.23c.02.05.24.14.28.14ZM248.33,804.56l-.06-.16,1.24-2.82.13.12,1.09,2.51c.04.1.09.25.11.34h-2.51ZM169.66,807.17h.76s.84.05.7-.08l-3.2-7.12h-1.36s-.18.09-.22.18l-3.12,6.96c.25.06.49.08.73.07l.72-.02.63-1.34h3.49c.11,0,.3.08.33.14l.54,1.21ZM165.96,804.55l-.07-.13,1.24-2.82.13.09,1.13,2.6.05.26h-2.49ZM227.51,807.18h.74s.2-.08.14-.22l-3.12-6.97-1.52-.02-3.21,7.17c.42.07,1.16.05,1.48.01l.61-1.33h3.77s.59,1.35.59,1.35h.52ZM223.18,804.55l1.25-2.91.13-.03,1.27,2.93h-2.65ZM203.18,804.46c.63-.53.9-1.29.87-2.11-.06-1.33-1.08-2.39-2.43-2.39h-3.63s0,7.2,0,7.2h1.36s.01-2.07.01-2.07c.06,0,.19-.03.25-.03l2.17-.03c.5,0,1.04-.29,1.39-.58ZM201.55,803.79h-2.18s0-2.54,0-2.54l2.18.02c.61,0,1.06.51,1.14,1.09.09.71-.39,1.43-1.14,1.43ZM243.53,799.97l-2.18,5.57-2.1-5.41c-.03-.07-.2-.19-.27-.2l-1.33.05,2.99,7.22.54-.02c.11,0,.25,0,.36,0l.53.02,2.99-7.23h-1.53ZM231.57,801.21h2.27s.03-1.06.03-1.06c0-.05-.13-.19-.18-.19h-5.76s-.01,1.24-.01,1.24h2.27s0,5.96,0,5.96l.74.03c.19,0,.43-.02.64-.05v-5.92ZM143.74,801.19l.03-1.04s-.11-.19-.21-.19h-5.73s-.02,1.24-.02,1.24l2.28.02v5.96s1.37,0,1.37,0v-5.96s2.28-.03,2.28-.03ZM137.77,805.92h-3.53s-.02-5.96-.02-5.96h-1.36s0,7.2,0,7.2h.61s3.87,0,3.87,0h.59s.03-1.12.03-1.12c0,0-.17-.13-.19-.13ZM181.9,730.26l1-.1-1.31-.07c-.79-.04-1.59,0-2.39.06-3.13.24-4.94.5-7.96,1.36-.11.03-.31.23-.34.36l-.6,2.45c3.85-2.51,6.89-3.42,11.32-4.02l.29-.04ZM171.26,745.35c.08-.07.1-.31.03-.38l-3.05-3.06-.79,2.98c-.14.54,0,1.03.36,1.41l.92.89c.17.16.49.14.68-.07.61-.67,1.14-1.19,1.85-1.76ZM235.1,799.96v7.24h1.36v-7.24h-1.36ZM160.88,799.96v7.23h1.36v-7.23h-1.36ZM363.86,784.27l-26.28,15.09-26.66-15.29.02-30.63,26.63-15.29,26.45,15.19c.27.85.26,1.6.02,2.54-6.47,1.22-10.96,6.64-11.17,12.99-.21,6.36,4.03,12.26,10.35,13.72.39.09.84.32.97.55s-.12.83-.32,1.13ZM342.37,774.33c-2.13,2.28-5.5,2.52-7.87.93-2.85-1.91-3.71-5.26-2.93-8.41.79-3.2,3.34-5.24,6.67-4.95,2.4.21,4.43,1.38,5.14,3.87l6.32-.05c-.71-6.59-6.9-9.98-12.64-9.64-6.22.37-11.31,4.6-12.22,10.69-1.01,6.81,2.34,13.13,9.23,14.9,1.68.43,3.3.73,4.98.47,6.43-.99,9.22-3.46,10.95-10l-6.48.07c-.36.69-.68,1.63-1.15,2.13ZM389.39,765.41l12.52,15.17,3.47-.03v-22.8s-4.24.03-4.24.03l-.08,15.16-12.21-14.84c-1.04-.48-2.74-.4-3.83,0v22.46s4.31-.06,4.31-.06l.08-15.08ZM378.85,775.91c-2.81,3.94-7.41,5.34-11.94,4.86-5.79-.62-10.17-5-10.63-10.59-.48-5.81,3.27-11.05,9.04-12.35,4.34-.98,8.9-.18,12.15,2.96,4.07,3.93,4.74,10.4,1.38,15.12ZM376.67,769.14c0-4.44-3.6-8.04-8.04-8.04s-8.04,3.6-8.04,8.04,3.6,8.04,8.04,8.04,8.04-3.6,8.04-8.04ZM510.89,778.92c-4.29,2.67-9.57,2.58-13.78.15s-6.31-7.42-5.37-12.31,4.74-8.33,9.66-9.12c4.85-.78,9.74.64,12.66,4.73,3.8,5.32,2.55,12.99-3.17,16.55ZM511.92,769.13c0-4.45-3.6-8.05-8.05-8.05s-8.05,3.6-8.05,8.05,3.6,8.05,8.05,8.05,8.05-3.6,8.05-8.05ZM535.35,780.68l-4.72-6.72-6.06-.04-.07,6.64-4.22-.03v-22.65c4.22-.04,8.29-.28,12.31.18,3.67.43,6.33,3.28,6.8,6.44.57,3.82-1.21,7.11-4.74,8.55l5.14,7.39-4.43.25ZM531.33,770.21c2.63-.34,3.95-2.4,3.83-4.64-.3-5.29-6.83-4.13-10.62-4.2v9.01c2.43-.02,4.57.11,6.79-.17ZM447.03,771.26c0,1.89-.7,3.96-2.36,4.97-2.24,1.35-5.43,1.29-7.43-.51-.96-.86-1.64-2.67-1.65-3.99l-.09-13.93c-1.67-.07-2.84-.06-4.31.06l.12,14.37c.04,4.37,3.24,7.72,7.41,8.43,2.62.45,5.14.32,7.59-.8,2.68-1.23,4.64-3.95,4.82-7.1.29-5.02.1-9.89.12-15-1.52-.04-2.75-.03-4.15.16l-.06,13.36ZM426.36,770.68c-3.17-4.12-13.02-2.67-12.43-6.96.54-3.94,8.1-2.98,11.19-1.04l1.4-3.21c-3.87-2.26-8.6-2.71-12.82-1.08-3.42,1.32-5.03,5.25-3.39,8.52.77,1.54,2.46,2.65,4.11,3.12l6.83,1.93c1.18.33,1.98,1.38,1.98,2.38,0,4.55-9.46,3.2-12.55.57-.59,1.14-1.06,2.15-1.47,3.4,4.39,2.62,9.59,3.45,14.31,1.52,3.78-1.55,5.2-6.06,2.83-9.15ZM573.79,780.52l-9.02-22.46-4.33-.02-8.99,22.51c1.51.1,2.7.09,4.16.03l6.98-16.63,6.93,16.66,4.26-.09ZM483.1,761.44l7.59-.09c.06-1.32.05-2.38-.1-3.64h-19.38s-.07,3.65-.07,3.65l7.62.04.06,19.12c1.51.06,2.94.08,4.25-.15l.02-18.93ZM461.3,776.85v-19.08c-1.57-.06-2.77-.06-4.33.07v22.72s16.17,0,16.17,0v-3.65s-11.83-.06-11.83-.06ZM543.68,757.8v22.76h4.3v-22.76h-4.3ZM304.47,771.86c-.03,3.21-2.62,5.08-5.54,5.05-2.98-.04-5.3-2.11-5.3-5.19v-4.94c0-2.91,2.2-4.89,5.01-5.07,3.32-.2,5.91,1.99,5.88,5.34l-.05,4.81ZM301.53,766.32c-.05-1.38-1.11-1.88-2.32-1.94-1.36-.06-2.65.6-2.66,2.18l-.02,5.43c0,1.55,1.26,2.28,2.7,2.22,3.13-.14,2.44-3.73,2.31-7.89ZM288.78,776.75c-.65.08-1.79.1-2.58.06l-.18-2.94-6.62-.05c-.39,0-.49-1.2-.3-1.52l6.44-10.48c1.03-.2,2.14-.2,3.28-.04l.04,9.44,1.17.21c.41.07.39,2.18,0,2.27l-1.14.25-.12,2.81ZM286.15,771.34l.17-5.99-3.81,6.02,3.63-.03ZM704.17,746.6c-.17,5.84-2.19,11.27-6.24,15.5-1.48,1.55-3.04,2.83-4.88,3.94-4.32,2.61-9.23,3.93-14.3,3.96-3.72.02-7.29-.65-10.65-2.19-2.37-1.09-4.31-2.59-6.14-4.44l-6.35-6.43-4.31-4.41-6.98-7.01-3.96-3.83c-3.28-3.17-6.63-6.17-10.22-8.99-1.93-1.52-3.86-2.87-5.99-4.03-1.58-.86-3.22-1.24-5-1.35-4.5-.3-8.6.68-12.06,3.69-2,1.75-3.45,3.95-4.49,6.41-1.13,2.66-1.57,5.44-1.83,8.3l-.13,1.48-.14-1.06-.2-2.06c-.11-1.12.02-2.18.12-3.34.41-4.7,2.39-9.01,5.65-12.39,5.91-6.11,15.36-8.61,23.68-7.49,4.57.61,9.08,2.33,12.43,5.6l3.78,3.69,3.53,3.43,7.05,6.95,1.13,1.13,3.08,3.16,1.83,1.96,1.28,1.37,1.56,1.64,4.42,4.54,2.06,1.96c1.63,1.55,3.35,2.92,5.25,4.13,2.04,1.3,4.21,2.19,6.6,2.6,2.14.36,4.23.46,6.35.12,7.58-1.2,12.04-7.11,13.44-14.33.2-1.02.33-2,.47-3.04.03-.23-.12-.45.18-.63l-.04,1.44ZM634.87,766.62c-5.18.6-10.2-.98-14.11-4.41-4.8-4.21-7.53-10.76-6.54-17.17.49-3.17,2.15-6.3,4.62-8.34,1.58-1.32,3.42-2.21,5.43-2.72,1.55-.4,3.06-.45,4.75-.58-3.79-3.08-8.3-4.77-13.11-4.23-5.15.57-9.42,3.71-11.65,8.34-1.79,3.72-2.41,7.55-2.19,11.69.29,5.59,2.65,10.74,6.72,14.58.43.4.77.76,1.23,1.15,4.34,3.65,9.9,5.81,15.61,6.1,4.39.22,8.73-.69,12.68-2.64,2.27-1.12,4.27-2.53,6.16-4.19.91-.8,1.8-1.57,2.46-2.58-1.46.91-2.68,1.78-4.17,2.53-2.53,1.29-5.1,2.16-7.89,2.48ZM686.13,761.5c3.97.26,7.92-1.03,10.86-3.7,1.41-1.28,2.47-2.71,3.34-4.39,2.11-4.07,2.75-8.77,2.25-13.33-.61-5.6-3.28-10.42-7.49-14.12-2.52-2.22-5.4-3.86-8.57-4.96-7.26-2.53-15.22-1.76-21.8,2.25-2.5,1.52-4.81,3.37-6.73,5.69,2.04-1.21,3.81-2.44,5.92-3.3,1.65-.67,3.27-1.23,5.03-1.5,5.37-.99,10.72.5,14.85,4.02,6.1,5.19,9.1,14.54,5.25,21.89-2.77,5.01-7.61,7.15-13.36,7.1,2.95,2.51,6.62,4.11,10.44,4.35ZM611.31,781.67c-6.4,0-11.58,5.19-11.58,11.58s5.19,11.58,11.58,11.58,11.58-5.19,11.58-11.58-5.19-11.58-11.58-11.58ZM607.77,798.75c-2.42-1.64-2.87-5.22-2.15-7.86,1.07-3.91,5.23-5.06,8.44-3.62,4.02,1.8,4.29,8.6,1.12,11.22-2.11,1.73-5.19,1.76-7.41.26ZM680.57,804.52l5.75-.04-8.15-22.38h-6.34s-8.15,22.38-8.15,22.38l5.69.02,1.37-3.98h8.46s1.37,3.99,1.37,3.99ZM672.16,796.38l2.81-8.26,2.84,8.28-5.64-.02ZM686.48,734.26c-2.41-4.83-6.8-8.02-12.12-8.58-1.56-.2-2.95-.14-4.54.02-6.23.75-12.85,4.56-16.08,10.03l5.72,5.69,1.68,1.78,3.41-3.34c3.29-3.23,8.33-7.13,13.08-7.56,3.57-.21,5.59.46,8.85,1.96ZM651.01,754.88l-6.57-6.59c-.3-.3-.47-.65-.88-.85-3.5,3.51-7.3,7.33-11.74,9.48-2.51,1.21-5.13,1.66-7.9,1.3-2-.26-3.71-1.01-5.6-1.84.61,1.34,1.34,2.3,2.13,3.3,7.07,8.3,19.65,6.1,27.03-.55,1.39-1.26,2.54-2.62,3.52-4.25ZM703.87,794.11c-.62-.63-1.26-1.16-2.07-1.54-1.2-.56-2.42-1-3.69-1.43-1.09-.37-2.17-.75-3.13-1.34-.66-.41-.91-1.04-.89-1.79.02-.79.47-1.44,1.24-1.73.85-.33,1.82-.19,2.65.24.68.41.97,1.09,1.17,1.92h5.78c.04-2.51-1.46-4.63-3.72-5.71-1.53-.73-3.15-.94-4.85-.92-1.82.02-3.56.34-5.11,1.29-1.32.81-2.31,1.96-2.69,3.48-.35,1.39-.33,2.82.14,4.16s1.96,2.64,3.28,3.22c1.45.64,2.93,1.1,4.45,1.58.89.28,1.75.62,2.43,1.2.51.44.68.97.68,1.61,0,.73-.32,1.34-1,1.68-.88.44-1.96.51-2.91.13s-1.46-1.29-1.59-2.33h-5.77c.03,3.38,2.42,5.67,5.51,6.48,3.32.87,7.45.52,9.86-2.14,1.98-2.19,2.27-6,.23-8.07ZM643.02,787.69c-.41-2.02-1.6-3.68-3.46-4.59-1.29-.65-2.68-.97-4.17-.97l-9.44-.03v22.41s5.46.01,5.46.01v-8.07s4.74-.06,4.74-.06c1.85-.02,3.5-.79,4.92-1.99,1.83-1.77,2.43-4.31,1.94-6.7ZM635.16,792.09h-3.74s.01-5.62.01-5.62h3.09c.65,0,1.32.11,1.9.43.85.47,1.17,1.4,1.21,2.4.05,1.51-.95,2.79-2.47,2.79ZM656.35,786.44h5.96s0-4.35,0-4.35h-17.46s0,4.34,0,4.34h6.02s0,18.09,0,18.09l5.48-.02v-18.06ZM628.13,811.36c-.27-.06-.6-.07-.77.05l-.03,4.93-3.34-4.97c-.23-.09-.61-.07-.89,0v6.2c.26.07.57.08.83.02v-4.88c.24.18.39.37.55.62l2.82,4.26c.25.06.59.05.84-.02v-6.22ZM674.84,811.22c-1.8,0-3.26,1.46-3.26,3.26s1.46,3.26,3.26,3.26,3.26-1.46,3.26-3.26-1.46-3.26-3.26-3.26ZM672.54,813.7c.28-1.24,1.47-1.95,2.67-1.78,1.29.18,2.06,1.29,2.04,2.6-.02,1.25-.74,2.26-1.96,2.49-1.16.21-2.41-.47-2.73-1.72-.14-.57-.13-1.07-.01-1.58ZM614.43,811.22c-1.8,0-3.26,1.46-3.26,3.26s1.46,3.26,3.26,3.26,3.26-1.46,3.26-3.26-1.46-3.26-3.26-3.26ZM613.33,816.79c-.84-.4-1.28-1.28-1.3-2.27s.39-1.89,1.23-2.33c.83-.44,1.95-.42,2.72.27,1.14,1.01,1.18,2.93.02,3.99-.78.71-1.84.73-2.68.34ZM686.27,814.99c1-.2,1.56-.93,1.53-1.91-.06-2.23-2.74-1.75-4.25-1.75v6.26c.22.06.51.06.74.02l.02-2.52c.4-.04.76-.04,1.11,0l1.45,2.49c.31.09.7.09.95-.02l-1.55-2.57ZM684.3,814.39v-2.42c.69-.08,1.33-.11,1.96.07s.8.81.71,1.37c-.08.49-.56.99-1.16.99h-1.51ZM704.4,817.54c.07.19.68.15.8-.03l-2.22-6.11c-.31-.11-.68-.12-.99-.03l-2.26,6.19c.18.11.75.16.83-.05l.5-1.24h2.84s.5,1.27.5,1.27ZM701.3,815.59l1.16-3.19,1.19,3.18c-.82.06-1.52.05-2.36,0ZM601.45,812.43c1.04-.88,2.88-.67,3.46.65.31.04.65.03.94-.04-.52-1.22-1.61-1.77-2.8-1.82-1.84-.07-3.22,1.28-3.31,3.1-.09,1.93,1.36,3.47,3.31,3.41,1.22-.04,2.36-.66,2.8-1.84l-.91-.04c-.56,1.16-2.05,1.59-3.24.85-1.5-.93-1.56-3.14-.25-4.26ZM638.06,815.5c-.14-.62-.62-.98-1.28-1.19l-1.39-.44c-.56-.17-.8-.61-.73-1.14s.46-.8,1.03-.85c.66-.07,1.21.22,1.48.86.21.04.62.04.81,0-.07-1.52-2.05-1.82-3.18-1.3-.55.26-.92.78-.97,1.29-.24,2.71,3.66,1.38,3.46,3.36-.05.52-.49.9-1.08.96-.72.07-1.39-.22-1.56-1-.24-.03-.58-.04-.8-.03-.08.49.16.85.54,1.16.82.68,2.16.75,3.04.08.61-.47.79-1.14.65-1.76ZM647.19,816.69c-.74.54-1.8.5-2.4-.23-.16-.2-.29-.74-.29-1v-4.11s-.79-.02-.79-.02l.03,4.42c0,1.27,1.21,1.99,2.38,1.99,1.29,0,2.38-.86,2.38-2.19v-4.18c-.25-.08-.61-.08-.77.05v4.1c0,.44-.22.96-.52,1.18ZM664.76,811.94l1.65-.04c.15,0,.17-.59-.02-.59h-4.11c-.14.02-.14.57,0,.58l1.7.05.02,5.65c.23.07.55.07.75-.03v-5.62ZM655.08,817v-5.57c-.17-.17-.55-.16-.8-.06v6.27s3.05,0,3.05,0c.04-.2.02-.58-.09-.59l-2.16-.05ZM694.31,811.35c-.29-.04-.54-.04-.84,0v6.25c.29.07.58.07.84-.03v-6.22ZM1005.84,778.73v4.83h-19.84s0-26.03,0-26.03h19.6s0,4.79,0,4.79h-13.6s-.02,5.7-.02,5.7h12.07s.02,4.66.02,4.66l-12.08.02v6.02s13.86,0,13.86,0ZM750.01,758.34l18.2,15.69c.22.56.27,1.92-.21,2.2-1.76.91-3.61,1.23-5.59,2.07,8.56.64,18.23-3.61,24.71-9.15,3.92-3.36,10.65-13.19,10.45-18.52l-2.38,5.71c-.63-.1-1.4-.25-1.9-.49l-9.38-22.51-9.35,22.09,10.73,9.66c.23.34.33.86.21,1.15s-1.03.39-1.3.15l-11.23-10.22-5.7.64,12.77,11.83c.21.19.11.89-.11,1.03s-.89.15-1.11-.04l-14.18-12.67-5.33.47,15.43,14.03c.27.24.05,1.21-.21,1.3s-.84.1-1.09-.13l-16.65-15.01-6.81.73ZM784.64,784.37l20.34,12.12-5.26-22.94,17.67-15.71-16.89-1.35c-.46-.74-.82-1.49-1.14-2.3l-1.22-3.66c-.25,2.88-.1,5.34-.58,8.03-1.27,7.14-5.06,13.35-10.35,18.23-3.73,3.44-8,5.75-12.85,7.24-6.35,1.96-8.58,1.08-14.82,1.81l6.87,2.06c-.68,2.94-1.48,5.52-1.91,8.48l20.14-12.02ZM979.86,757.52l-5.96.04-.04,15.69-12.89-15.71h-4.99s.01,26.01.01,26.01l5.87-.07v-15.84s13.01,15.87,13.01,15.87l4.99-.1v-25.89ZM911.21,775.18c3.55-1.55,5.46-4.8,5.27-8.64-.16-3.18-1.6-5.95-4.49-7.47-1.63-.89-3.49-1.46-5.44-1.47l-12.61-.05v25.96s6.03.04,6.03.04l.03-7.2h5.58s4.9,7.14,4.9,7.14l6.41-.11-5.68-8.2ZM905.53,771.47l-5.54.03v-9.1s5.91.06,5.91.06c1.43.01,2.74.67,3.67,1.66,1.08,1.77,1.17,3.83,0,5.68-1.07,1.05-2.53,1.67-4.02,1.68ZM884.9,783.49l6.28-.06-11.57-25.86-5.99-.05-11.55,25.94,6.09.07,2.35-5.58h12.07s2.32,5.55,2.32,5.55ZM872.43,773.36l4.11-9.85,4.11,9.76-8.22.08ZM839.04,772.3c-.93-1.45-2.52-2.49-4.2-2.96l-7.94-2.22c-1.26-.35-2.05-1.43-1.95-2.58.09-1,.87-1.94,2.04-2.28,3.37-.98,6.81-.16,10.07,1.61l1.86-4.44c-3.84-2.59-10.66-3.13-15.02-1.32-3.24,1.34-5.12,4.15-4.94,7.57.49,9.18,15.88,5.66,15.04,11.16-.11.7-.93,1.65-1.91,1.9-4.01,1.04-8.1.05-11.64-2.28l-2.05,4.53c5.05,3.68,16.6,4.57,20.44-1.24,1.48-2.25,1.69-5.15.21-7.45ZM855.17,762.45l8.37-.02v-4.89s-22.7,0-22.7,0l.02,4.88,8.31.02v21.02c2.1.08,3.9.11,6-.03v-21ZM927.34,778.62v-21.09s-6.04,0-6.04,0v26.02s19.08,0,19.08,0l-.02-4.91-13.03-.02ZM943.78,757.53v26.02h6.01v-26.02h-6.01ZM777.47,779.29c-7.1,2.08-14.37,1.82-21.49-.08l-.97,3.46c8.6,1.83,19.14-.39,26.57-4.41-1.48.21-2.73.63-4.12,1.03ZM800.75,750.03l-.73-3.26,2.47-2.05-3.32-.34-1.29-3.02-1.32,3.02-3.32.34,2.51,2.11-.76,3.17,2.91-1.66,2.86,1.7ZM955.91,796.88c-.81-.03-1.65-.77-1.89-1.68-.26-1.01.09-2.03.9-2.57,2.09-1.4,3.01,1.52,4.01.32-.53-1.39-1.96-1.72-3.24-1.58-1.05.11-2.17.82-2.54,1.96-.68,2.08.49,4.06,2.35,4.38,2.07.36,3.91-1,3.76-3.39l-3.1-.06c-.17,0-.56.48-.41.57.1.06.43.22.56.23l1.84.1c-.4,1.43-1.26,1.75-2.24,1.72ZM918.05,791.47l-2.83-.09v6.3c.92.02,1.76.02,2.61-.01,1.65-.07,2.8-1.25,2.84-3.03.03-1.64-.98-3.1-2.61-3.16ZM916.3,796.85v-4.53c.78-.15,1.93-.15,2.61.47,1.02.92.98,2.95-.3,3.79-.64.42-1.63.34-2.31.27ZM885.21,791.27c-1.79,0-3.25,1.45-3.25,3.25s1.45,3.25,3.25,3.25,3.25-1.45,3.25-3.25-1.45-3.25-3.25-3.25ZM885.24,796.91c-1.16-.01-2.09-.9-2.19-2.14-.11-1.38.69-2.42,1.97-2.52s2.45.78,2.38,2.4c-.06,1.34-1.05,2.28-2.16,2.27ZM842.53,791.27c-1.79,0-3.25,1.45-3.25,3.25s1.45,3.25,3.25,3.25,3.25-1.45,3.25-3.25-1.45-3.25-3.25-3.25ZM842.54,796.92c-1.16.02-2.07-.91-2.19-2.16-.14-1.45.83-2.53,2.18-2.53,1.35,0,2.26,1.05,2.14,2.52-.1,1.24-.99,2.16-2.14,2.18ZM983.68,791.27c-1.8,0-3.25,1.46-3.25,3.25s1.46,3.25,3.25,3.25,3.25-1.46,3.25-3.25-1.46-3.25-3.25-3.25ZM983.67,796.92c-1.16-.04-2.05-.92-2.15-2.18-.1-1.35.7-2.4,1.94-2.5,1.34-.11,2.48.78,2.39,2.4-.07,1.38-1.04,2.31-2.18,2.27ZM853.87,797.55l-1.3-2.38c1.02-.41,1.53-1.21,1.38-2.21-.14-.91-.97-1.61-2.02-1.58l-2.35.06.04,6.07c.01.24.98.15.99-.12l.06-2.08c0-.24.78-.18.9.04l1.13,2.03c.15.27.94.31,1.17.16ZM850.66,794.38v-2.18c.48-.05,1.32-.03,1.82.15.28.11.53.77.51,1.06s-.52.89-.83.9l-1.49.07ZM976.42,797.47l-1.25-2.28c.95-.44,1.53-1.24,1.37-2.21-.14-.9-.97-1.6-2.01-1.58l-2.35.03.03,6.24c.39,0,.97-.1.98-.27l.08-2.1c0-.22.77-.13.89.08l1.19,2.07c.15.26,1.09.28,1.08.02ZM973.26,794.43v-2.16c.61-.06,1.41-.07,1.93.18.66.32.52,1.65-.24,1.82-.57.12-1.14.15-1.68.16ZM862.42,797.45l-1.25-2.22c1.01-.53,1.5-1.28,1.36-2.27s-1-1.58-2.06-1.57l-2.27.02v6.17s.98.02.98.02l.13-2.47c.25-.01.79.12.91.33l1.11,2c.15.27,1.06.28,1.1-.01ZM859.29,794.4l-.02-2.27c.69.03,1.33.04,1.92.32.42.2.33,1.05.19,1.71-.87.14-1.37.2-2.08.24ZM966.93,795.98c0,.63-1,1-1.52.95-.41-.04-1.19-.43-1.2-1l-.1-4.41c-1.51-1.58-.94,4.09-.9,4.52.1,1.29,1.46,1.78,2.43,1.75s2.25-.6,2.33-1.87c.48-7.2-.97-3.85-.97-4.24l-.07,4.29ZM905.19,797.59c.07.2.99-.02.92-.24l-2.04-5.8c-.3-.17-1.08-.17-1.34-.02l-2.11,6.02c.54.19,1.07.11,1.16-.21l.28-.92,2.74.05.4,1.12ZM902.38,795.63l.98-3.12,1.09,2.99c-.38.07-1.32.12-2.07.13ZM896.58,797.55l-1.45-2.51c1.03-.01,1.67-1.05,1.55-1.96-.11-.84-.89-1.67-1.82-1.66h-2.54s-.03,5.72-.03,5.72c0,.19.34.6.53.61s.46-.39.47-.58l.06-1.89c.03-.13.74-.18.83-.02l1.23,2.17c.14.25.89.29,1.17.13ZM893.35,794.38l-.02-2.16c.58-.05,1.28-.06,1.82.13.63.21.77,1.4.08,1.76-.53.28-1.27.29-1.88.27ZM940.7,794.42c-.74-.28-1.52-.54-2.19-.87-.34-.16-.14-1.25.22-1.31.42-.08,1.09-.06,1.33.16l.7.65c.12.11.71-.33.67-.51-.17-.8-1.48-1.43-2.48-1.23-.95.2-1.66.77-1.73,1.68-.17,2.02,2.6,1.62,3.2,2.58.37.58-.21,1.3-.65,1.35-1.8.2-.69-1.02-2.36-.98-.24,0-.1.78.07.98.91,1.1,2.79,1.15,3.76.02.76-.88.39-2.17-.54-2.52ZM994.98,796.48c.16-.49.02-1.61-.39-1.8l-2.65-1.16c-.28-.15-.21-1.04.07-1.17,1.76-.85,1.49,1.08,2.7.61.51-.94-.79-1.6-1.66-1.64-.8-.04-1.7.27-2.1.76-.33.41-.46,1.54-.03,1.95,1.18,1.13,3.13.89,3.02,1.86-.04.34-.19.86-.44.96s-1.11.1-1.29-.1l-.61-.71c-.15-.17-.94,0-.94.22.17,1.01,1.47,1.8,2.76,1.44.71-.19,1.41-.74,1.57-1.22ZM831.63,792.4c2.34-1.15,2.42,1.51,3.9.65-.84-1.97-3.37-2.24-4.94-1-1.59,1.25-1.53,3.78.16,5.03,1.46,1.08,3.89.78,4.77-1.1-1.44-.83-1.77,1.91-3.99.56-.58-.35-1-1.13-1-2.13,0-.96.55-1.73,1.1-2ZM927.35,794.05l-1.77-.02.03-1.76,2.18-.1c.2,0,.19-.76-.02-.76h-3.26s0,6.26,0,6.26l3.05.05c.15,0,.59-.35.51-.46-.06-.07-.25-.36-.34-.36l-2.13-.05v-1.85s2.12-.07,2.12-.07c0-.4-.13-.88-.34-.88ZM870.07,794.39c-.08-.08-.32-.36-.43-.36h-1.79s-.04-1.85-.04-1.85l2.29-.04c.18,0,0-.77-.21-.77l-3.08.03v6.27s3.09.03,3.09.03c.12,0,.5-.39.42-.47s-.31-.34-.43-.34l-2.05-.03v-1.96s1.77-.03,1.77-.03c.14,0,.53-.41.46-.49ZM948.66,794.1l-1.96-.08.04-1.76,2.39-.07v-.78s-3.47-.02-3.47-.02l.02,6.29,3.15.02c.1,0,.4-.36.37-.46s-.24-.35-.35-.35l-2.13-.03-.03-1.84,1.82-.08c.23,0,.34-.85.13-.86ZM876.82,792.16c.97.05,1.6.4,1.74-.72l-3.86-.05c-.19,0-.54.09-.67.15s.07.62.21.63l1.48.14.1,5.21c0,.27.98.09.98-.15l.02-5.2Z"/>
    <path class="cls-1" d="M1054.81,841.29H55.71c-13.93,0-25.27-11.34-25.27-25.27v-94.75c0-13.93,11.34-25.27,25.27-25.27h999.1c13.93,0,25.27,11.34,25.27,25.27v94.75c0,13.93-11.34,25.27-25.27,25.27ZM55.71,700.84c-11.27,0-20.43,9.17-20.43,20.43v94.75c0,11.27,9.17,20.43,20.43,20.43h999.1c11.27,0,20.43-9.17,20.43-20.43v-94.75c0-11.27-9.17-20.43-20.43-20.43H55.71Z"/>
  </g>
  <path class="cls-1" d="M569.78,264.65l-18.93-18.96-4.89,18.45c-.89,3.35-.02,6.38,2.25,8.75l5.69,5.5c1.04,1,3.05.87,4.23-.43,3.8-4.17,7.08-7.4,11.48-10.93.52-.42.62-1.91.17-2.37ZM633.61,172.48c-4.92-.25-9.86,0-14.84.38-19.38,1.48-30.62,3.09-49.32,8.42-.7.19-1.94,1.44-2.13,2.19l-3.71,15.2c23.88-15.54,42.7-21.19,70.16-24.93l1.78-.24,6.2-.6-8.13-.43ZM720.14,264.3c-12.94-13.62-43.74-15.85-61.29-15.14-1.18.05-2.54.27-3.53.42l2.92.6c9.71,1.99,16.67,3.34,25.22,8.35,7.49,4.38,12.93,11.03,15.5,19.29,3.05,9.75,3.06,20.21-1.14,29.53-3.36,7.45-9.43,13.18-17.19,15.86-6.69,2.31-13.47,3.52-20.71,4.78-.48.08-1.29.39-2.3.76l2.95.27c12.83,1.24,32.03-1.47,44.47-4.72,6.25-1.65,14.15-4.75,18.14-10.05,11.35-15.15,10.1-36.13-3.03-49.95ZM643.54,565.45l-21.39-2.99c-37.07-5.17-74.74-26.88-101.68-52.67-1.57-1.49-1.47-3.6,0-5.07l21.18-21.13,16.32-16.29-7.27-6.36c-1.93-1.68-3.61-3.55-5.28-5.47-1.22-1.41-3.49-1.8-5.02-.27l-4.78,4.81-40.42,40.42-4.22,4.2c-1.41,1.41-1.49,3.93.01,5.27l9.77,8.67c27.44,24.37,62.92,39.17,99.04,44.8,12.6,1.96,25,2.71,37.86,2.91,1.94.04,3.85-.17,5.87-.42,1.19-.32,1.23-.41.04-.41ZM729.66,437.25c-2.78-11.91-11.76-20.16-22.99-24.07-17.18-5.99-36.47-8.8-54.68-9.74l-14.33-.74c-2.1-.11-3.84-1.8-3.84-3.95l.07-16.65.06-49.73c0-1.42-1.09-2.87-2.48-2.92l-23.56-.79c-2.42-.08-4.05,1.16-4.05,3.76v60.54s-.06,6.58-.06,6.58c-.01.98,1.6,2.49,2.5,2.54l14.21.76c18.3.97,61.75,5.28,73.07,21.15,7.21,10.12,9.35,22.61,5.97,34.46-3.37,11.8-11.76,21.57-23.44,25.03l-17.11,5.08c7.17.81,13.58.6,20.45.13,12.02-.81,24.07-3.64,34.53-9.68,7.61-4.39,12.87-11.39,15.18-19.77,1.99-7.23,2.18-14.71.5-21.99ZM482.31,169.28c-.38-.31-1.37-.61-2.04-.61h-39.49c-1.94-.01-3.49,1.18-3.97,3.06l-18.86,74.41-22.71,89.51c-.35,1.34-.26,2.9.07,4.22l21.94,85.9c1.4-2.19,1.72-3.9,2.27-6.1l53-207.99,10.24-40.11c.14-.52-.07-1.97-.44-2.29ZM327.41,353.69l-19.24-70.55-22.42,81.72c0,1.81.1,2.97.43,4.89l24.74,90.65,27.07,99.61c.48,1.74,1.94,2.86,3.65,2.86l40.17-.04c.49,0,1.79-.27,1.81-.7l.16-2.19-56.36-206.25ZM55.27,208.31l-4.63-16.75-4.85-20.11c-.26-1.1-1.71-2.75-2.87-2.75l-38.26-.04c-.43,0-.9.05-1.38.13-1.97.35-3.43,2.15-3.15,4.14.01.1.03.19.05.27l17.74,66.27,75.73,283.35,9.94,37.34c.17,1.79,1.31,2.75,2.97,2.74l43.39-.3L55.27,208.31ZM266.06,169.14c-.43-.29-1.19-.47-2.35-.47l-33.64-.02c-.51,0-1.3-.56-1.09-.56h-4.55l-1.13.62c-1,.52-2.73,2.03-3,3.28l-1.53,7.06-23.97,90.49-17.96,67.84c-.45,1.73-.12,3.67.23,5.08l7.37,28.66,14.38,55.31,26.63-99.97,29.15-110.13,11.9-44.78c.14-.55-.01-2.15-.44-2.42ZM1079.37,329.91c-.45-.51-2.25-1.36-3.31-1.36l-34.38.07h-58.32l-32.65-.05c-2.07-.01-3.85,1.74-3.84,3.6l.02,9.5v59.51c-.02,1.98,1.78,3.52,3.83,3.51l34.29-.13,11.6-.05c1.09,0,2.53,1.67,2.52,2.66l-.04,8.22v51.04c.01,1.3-1.34,3.53-2.62,4.27-5.48,3.16-10.62,5.87-16.44,7.75-25.79,8.32-53.21,8.44-79.65,2-8.54-2.09-18.49-5.99-26.34-10.33-12.63-7-23.13-16.26-31.55-27.83-10.67-14.65-17.48-31.23-20.62-49.24-2.99-17.15-2.52-37.42,1.13-54.45,4.33-20.2,14.09-38.12,28.51-52.77,19.6-19.92,43.99-29.86,71.71-31.99,30.66-2.37,60,3.62,86.27,19.38,5.27,3.16,9.85,6.44,14.86,10.11,1.06.77,3.22,1.19,4.29.01l18.95-20.78,30.87-33.74c1.44-1.57,1.49-4.21-.1-5.54-7.48-6.24-15.82-12.65-24.15-17.91-19.03-12.02-39.56-21.01-61.62-26.53l-1.17-.3c-29.28-7.32-61.01-8.06-91.14-3.64-40.87,6.01-75.18,24.47-104.72,53.29-1.93,1.88-1.94,4.07-.63,6.34,17.98,31.12,18.91,62.46,7.68,95.96-5.41,16.16-16.6,27.36-31.25,35.35v.94c11.74,4.6,22.06,10.35,29.89,19.94,18.17,22.21,20.51,49.61,17.78,77.24-1.73,17.6-9.55,32.53-20.15,46.24-.76.98-.73,2.74.16,3.53,4.61,4.14,8.79,7.8,13.75,11.68,16.66,13.09,34.84,23.08,54.81,29.93,16.87,5.78,34.07,9.19,51.82,10.39,17.18,1.16,34.05.48,51.32-1.96,26.21-3.7,50.83-11.94,73.78-24.86,11.61-6.53,22.32-14.13,32.69-22.73.17-.13.68-.56.7-.61l1.55-2.21.6-1.3v-180.86l-.69-1.3Z"/>
  <g>
    <path class="cls-1" d="M381.92,70.59h8.27v31.08c-7.68,6.86-18.63,10.36-29.92,10.36-24.8,0-42.96-17.58-42.96-41.44s18.16-41.45,43.07-41.45c12.34,0,23.05,3.96,30.27,11.76l-5.36,5.47c-6.87-6.75-15.02-9.55-24.57-9.55-20.14,0-34.93,14.32-34.93,33.76s14.79,33.76,34.81,33.76c7.8,0,15.02-1.74,21.3-6.28v-27.47Z"/>
    <path class="cls-1" d="M470.21,111.33l-18.63-26.19c-2.09.23-4.19.35-6.52.35h-21.88v25.84h-8.62V29.84h30.5c20.73,0,33.3,10.47,33.3,27.94,0,12.81-6.75,21.76-18.63,25.61l19.91,27.93h-9.43ZM469.75,57.79c0-13.04-8.62-20.49-24.92-20.49h-21.65v40.86h21.65c16.3,0,24.92-7.56,24.92-20.37Z"/>
    <path class="cls-1" d="M498.08,76.53V29.84h8.61v46.33c0,19.33,9.08,28.17,24.92,28.17s25.03-8.84,25.03-28.17V29.84h8.38v46.68c0,23.39-12.57,35.51-33.41,35.51s-33.53-12.11-33.53-35.51Z"/>
    <path class="cls-1" d="M654.82,57.79c0,17.35-12.57,27.82-33.3,27.82h-21.88v25.73h-8.62V29.84h30.5c20.73,0,33.3,10.47,33.3,27.94ZM646.21,57.79c0-13.04-8.62-20.49-24.92-20.49h-21.65v40.75h21.65c16.3,0,24.92-7.45,24.92-20.26Z"/>
    <path class="cls-1" d="M667.44,70.59c0-23.75,18.16-41.45,42.84-41.45s42.73,17.58,42.73,41.45-18.28,41.44-42.73,41.44-42.84-17.7-42.84-41.44ZM744.4,70.59c0-19.44-14.55-33.76-34.11-33.76s-34.34,14.32-34.34,33.76,14.67,33.76,34.34,33.76,34.11-14.31,34.11-33.76Z"/>
  </g>
</svg>